<!DOCTYPE svg PUBLIC "-//W3C//DTD SVG 1.1//EN" "http://www.w3.org/Graphics/SVG/1.1/DTD/svg11.dtd">
<svg fill="#262626" height="800px" width="800px" version="1.1" id="Layer_1" xmlns="http://www.w3.org/2000/svg" xmlns:xlink="http://www.w3.org/1999/xlink" viewBox="0 0 512 512" xml:space="preserve" stroke="#262626">
<g id="SVGRepo_bgCarrier" stroke-width="0"/>
<g id="SVGRepo_tracerCarrier" stroke-linecap="round" stroke-linejoin="round"/>
<g id="SVGRepo_iconCarrier"> <g> <g> <path d="M510.346,349.777l-41.74-169.799c-6.702-27.262-25.697-48.265-49.634-58.58v-6.302c0-12.812-10.387-23.198-23.198-23.198 h-43.473c-12.812,0-23.198,10.387-23.198,23.198v16.641H182.899v-16.641c0-12.812-10.387-23.198-23.198-23.198h-43.473 c-12.812,0-23.198,10.387-23.198,23.198v6.302c-23.936,10.315-42.932,31.318-49.633,58.58L1.655,349.777 c-7.485,30.446,11.13,61.195,41.576,68.68c23.973,5.893,49.008-4.382,61.927-25.419l23.261-37.878 c-8.584-12.06-13.653-26.787-13.653-42.685c0-40.695,33.107-73.802,73.802-73.802c33.444,0,61.745,22.368,70.775,52.924h3.423 c9.03-30.556,37.332-52.924,70.775-52.924c40.695,0,73.802,33.107,73.802,73.802c0,19.177-7.357,36.666-19.391,49.802 l18.891,30.76c12.919,21.037,37.954,31.312,61.927,25.419C499.217,410.972,517.831,380.222,510.346,349.777z M109.79,149.255 h17.818c3.444,0,6.237,2.792,6.237,6.237v6.421c0,1.942-0.905,3.774-2.448,4.953l-8.909,6.812c-2.236,1.71-5.341,1.71-7.576,0 l-8.909-6.812c-1.543-1.18-2.448-3.011-2.448-4.953v-6.421h-0.002C103.553,152.048,106.346,149.255,109.79,149.255z M95.304,200.452h-6.422c-3.444,0-6.237-2.793-6.237-6.237v-17.818c0-3.444,2.793-6.237,6.237-6.237h6.422 c1.942,0,3.774,0.905,4.953,2.448l6.813,8.909c1.71,2.236,1.71,5.341,0,7.576l-6.813,8.909 C99.079,199.547,97.247,200.452,95.304,200.452z M127.607,221.359h-17.818c-3.444,0-6.237-2.793-6.237-6.237v-6.422 c0-1.942,0.905-3.774,2.448-4.954l8.909-6.812c2.236-1.71,5.341-1.71,7.576,0l8.909,6.812c1.543,1.18,2.448,3.011,2.448,4.954 v6.422h0.002C133.844,218.567,131.051,221.359,127.607,221.359z M148.514,200.453h-6.422c-1.942,0-3.774-0.905-4.953-2.448 l-6.812-8.909c-1.71-2.236-1.71-5.341,0-7.576l6.812-8.909c1.18-1.543,3.011-2.448,4.953-2.448h6.421 c3.444,0,6.237,2.792,6.237,6.237v17.816h0.001C154.75,197.66,151.958,200.453,148.514,200.453z M249.315,212.452 c0,4.165-3.376,7.541-7.541,7.541h-45.665c-4.165,0-7.541-3.376-7.541-7.541v-15.626c0-4.165,3.376-7.541,7.541-7.541h45.665 c4.165,0,7.541,3.376,7.541,7.541V212.452z M329.122,212.452c0,4.165-3.376,7.541-7.541,7.541h-45.665 c-4.165,0-7.541-3.376-7.541-7.541v-15.626c0-4.165,3.376-7.541,7.541-7.541h45.665c4.165,0,7.541,3.376,7.541,7.541V212.452z M394.212,144.708c7.688,0,13.92,6.232,13.92,13.92c0,7.688-6.232,13.92-13.92,13.92s-13.92-6.232-13.92-13.92 C380.291,150.941,386.524,144.708,394.212,144.708z M369.081,197.68c-7.688,0-13.92-6.232-13.92-13.92 c0-7.688,6.232-13.92,13.92-13.92c7.688,0,13.92,6.232,13.92,13.92C383.001,191.448,376.769,197.68,369.081,197.68z M394.212,222.813c-7.688,0-13.92-6.232-13.92-13.92c0-7.688,6.232-13.92,13.92-13.92s13.92,6.232,13.92,13.92 C408.132,216.58,401.9,222.813,394.212,222.813z M419.343,197.68c-7.688,0-13.92-6.232-13.92-13.92 c0-7.688,6.232-13.92,13.92-13.92c7.688,0,13.92,6.232,13.92,13.92C433.264,191.448,427.031,197.68,419.343,197.68z"/> </g> </g> <g> <g> <circle cx="188.569" cy="312.474" r="50.606"/> </g> </g> <g> <g> <circle cx="333.538" cy="312.474" r="50.606"/> </g> </g> </g>
</svg>